<?xml version="1.0" standalone="no"?>
<!DOCTYPE svg PUBLIC "-//W3C//DTD SVG 1.1//EN" "http://www.w3.org/Graphics/SVG/1.1/DTD/svg11.dtd" >
<svg xmlns="http://www.w3.org/2000/svg">
<metadata>Generated by IcoMoon</metadata>
<defs>
<font id="icomoon" horiz-adv-x="1024">
<font-face units-per-em="1024" ascent="960" descent="-64" />
<missing-glyph horiz-adv-x="1024" />
<glyph unicode="&#x20;" horiz-adv-x="512" d="" />
<glyph unicode="&#xe900;" glyph-name="1" d="M889.467 526.595c14.834 17.091 28.573 35.154 41.021 54.149-7.926 11.22-16.299 22.101-25.088 32.628-81.446-132.646-227.833-221.126-394.902-221.126-165.123 0-310.040 86.446-392.021 216.532-8.673-10.639-16.916-21.641-24.719-32.966 12.681-18.869 26.651-36.789 41.708-53.722l-36.314-36.314c-7.516-7.516-7.52-19.705 0-27.225s19.709-7.516 27.225 0l35.724 35.724c33.751-32.577 72.073-60.43 113.882-82.575l-23.146-44.121c-4.939-9.414-1.314-21.047 8.107-25.993 9.414-4.932 21.043-1.307 25.982 8.107l23.75 45.268c56.071-24.375 117.46-38.799 181.951-41.059v-52.019c0-10.633 8.619-19.255 19.255-19.255s19.255 8.619 19.255 19.255v52.152c64.341 2.601 125.559 17.292 181.432 41.912l24.265-46.254c4.939-9.414 16.572-13.039 25.993-8.1 9.414 4.939 13.039 16.572 8.1 25.986l-23.753 45.281c42.735 22.914 81.787 51.791 115.985 85.596l34.219-34.215c7.513-7.516 19.705-7.516 27.228 0 7.513 7.516 7.513 19.705-0.007 27.225l-35.13 35.13z" />
<glyph unicode="&#xe901;" glyph-name="12" d="M492.495 209.067l219.429 414.476-304.762-277.943zM277.943 423.619l102.4-51.2 297.448 270.629zM512 960c-282.819 0-512-229.181-512-512s229.181-512 512-512 512 229.181 512 512c0 282.819-229.181 512-512 512zM799.695 711.314l-292.571-546.133c-2.438-4.876-9.752-9.752-14.629-9.752 0 0 0 0 0 0-7.314 0-12.19 2.438-14.629 9.752l-107.276 170.667-141.41 70.705c-4.876 4.876-9.752 9.752-9.752 17.067s2.438 12.19 9.752 17.067l546.133 295.010c7.314 4.876 14.629 2.438 21.943-2.438 4.876-4.876 7.314-14.629 2.438-21.943z" />
<glyph unicode="&#xe902;" glyph-name="10" d="M315.503 453.535l442.811 459.416c11.070 11.070 11.070 27.676 0 38.746s-27.676 11.070-38.746 0l-462.184-478.789c-2.768-2.768-2.768-5.535-5.535-8.303 0 0 0 0 0-2.768-2.768 0-2.768-2.768-2.768-2.768s0-2.768 0-2.768 0-2.768 0-2.768c0-2.768 0-5.535 2.768-5.535 0 0 0 0 0-2.768s2.768-5.535 5.535-8.303l462.184-478.789c11.070-11.070 27.676-11.070 38.746 0s11.070 27.676 0 38.746l-442.811 456.649z" />
<glyph unicode="&#xe903;" glyph-name="13" d="M930.362 450.816c-2.632 3.724-5.386 7.352-8.113 11.005-90.989 127.44-240.097 210.545-408.627 210.545-170.633 0-321.335-85.2-411.979-215.344-2.693-3.693-5.41-7.369-8.008-11.138 0.075-0.113 0.075-0.57 0-0.686 2.632-3.721 5.379-7.342 8.103-10.988 90.986-127.461 240.101-210.572 408.637-210.572 170.643 0 321.352 85.21 411.993 215.375 2.69 3.69 5.4 7.359 7.994 11.121-0.075 0.109-0.075 0.567 0 0.683zM510.375 262.318c-150.716 0-284.57 72.038-369.128 183.532 84.357 113.934 219.716 187.836 372.374 187.836 150.716 0 284.57-72.038 369.128-183.521-84.357-113.944-219.713-187.846-372.374-187.846zM566.617 482.133c-18.848 0-34.133 15.285-34.133 34.133 0 11.578 5.779 21.791 14.592 27.962-10.94 3.99-22.753 6.171-35.075 6.171-56.552 0-102.4-45.848-102.4-102.4s45.848-102.4 102.4-102.4 102.4 45.848 102.4 102.4c0 20.367-5.97 39.328-16.224 55.279-5.11-12.404-17.309-21.146-31.56-21.146z" />
<glyph unicode="&#xe904;" glyph-name="14" d="M257.384-3.114c-11.070-11.070-11.070-27.676 0-38.746s27.676-11.070 38.746 0l462.184 478.789c2.768 2.768 5.535 5.535 5.535 8.303s0 2.768 0 2.768c2.768 0 2.768 2.768 2.768 5.535 0 0 0 0 0 2.768v2.768c0 0 0 2.768-2.768 2.768 0 2.768 0 2.768 0 2.768-2.768 2.768-2.768 5.535-5.535 8.303l-462.184 478.789c-11.070 11.070-27.676 11.070-38.746 0s-11.070-27.676 0-38.746l442.811-459.416-442.811-456.649z" />
<glyph unicode="&#xe905;" glyph-name="19" d="M470.4 44.8c-9.6-19.2-25.6-28.8-44.8-28.8-16 0-32 6.4-44.8 22.4l-176 169.6h-115.2c-57.6 0-89.6 60.8-89.6 118.4v265.6c0 57.6 38.4 99.2 89.6 99.2h131.2l160 163.2c16 16 32 25.6 51.2 25.6 22.4 0 48-16 48-67.2v-723.2c0-19.2-3.2-32-9.6-44.8v0zM416 800l-160-163.2c-6.4-6.4-12.8-9.6-22.4-9.6h-144c-22.4 0-25.6-19.2-25.6-35.2v-262.4c0-28.8 12.8-57.6 25.6-57.6h128c9.6 0 16-3.2 22.4-9.6l176-172.8v710.4zM640 48c0 0 0 0 0 0-19.2 0-32 12.8-32 32s12.8 32 32 32c179.2 6.4 320 153.6 320 332.8 0 182.4-144 332.8-320 339.2-19.2 0-32 16-32 32 0 19.2 16 32 32 32 211.2-6.4 384-188.8 384-403.2s-169.6-396.8-384-396.8v0zM579.2 240c-3.2 0-3.2 0 0 0-19.2 0-32 12.8-35.2 28.8 0 19.2 12.8 32 28.8 35.2 73.6 6.4 131.2 70.4 131.2 144 0 76.8-57.6 137.6-131.2 144-19.2 0-32 16-28.8 35.2 0 19.2 16 32 35.2 28.8 105.6-6.4 188.8-96 188.8-204.8 0-112-83.2-201.6-188.8-211.2v0z" />
<glyph unicode="&#xe906;" glyph-name="-3" d="M512 920.642c-260.927 0-472.45-211.523-472.45-472.454s211.523-472.45 472.45-472.45 472.45 211.523 472.45 472.45-211.523 472.454-472.45 472.454zM512 18.571c-237.269 0-429.613 192.344-429.613 429.613 0 237.273 192.344 429.617 429.613 429.617s429.62-192.344 429.62-429.617c0-237.266-192.351-429.613-429.62-429.613zM792.395 97.529c-0.090 0.925-0.191 1.846-0.293 2.767-0.029 1.998-0.26 3.938-0.679 5.816-13.099 102.989-80.414 189.046-172.45 228.646 53.183 36.439 88.087 97.613 88.087 166.945 0 111.695-90.555 202.242-202.235 202.242-111.695 0-202.246-90.547-202.246-202.242 0-69.356 34.929-130.556 88.141-166.984-91.028-39.21-157.863-123.884-171.93-225.417-1.030-2.962-1.593-6.134-1.593-9.447l0.21-2.207c0-0.040-0.004-0.076-0.007-0.116h0.022l0.033-0.347c0-15.928 12.911-28.835 28.831-28.835 15.928 0 28.835 12.907 28.835 28.835l-0.029 0.347h0.524c13.439 110.127 104.394 196.311 216.638 202.34 4.158-0.256 8.352-0.397 12.575-0.397 4.227 0 8.421 0.141 12.579 0.401 112.273-6.026 203.239-92.206 216.671-202.343h0.585l0.033-0.347c0-15.928 12.915-28.835 28.835-28.835s28.835 12.907 28.835 28.835l-0.033 0.347h0.061v-0.004zM504.771 357.193c-79.779 0-144.45 64.675-144.45 144.45 0 79.779 64.667 144.457 144.45 144.457s144.45-64.678 144.45-144.457c0-79.775-64.671-144.45-144.45-144.45v0z" />
<glyph unicode="&#xe907;" glyph-name="-4" d="M1024 448c0-282.77-229.23-512-512-512s-512 229.23-512 512c0 282.77 229.23 512 512 512s512-229.23 512-512z" />
<glyph unicode="&#xe908;" glyph-name="-5" d="M631.467 677.181h-214.552c-87.771 0-158.476-70.705-158.476-158.476v-36.571c0-90.21 75.581-168.229 158.476-168.229h63.39c2.438 0 7.314 0 9.752-2.438l148.724-82.895v78.019c0 9.752 7.314 17.067 14.629 19.505 82.895 14.629 136.533 75.581 136.533 156.038v39.010c0 85.333-70.705 156.038-158.476 156.038zM512 960c-282.819 0-512-229.181-512-512s229.181-512 512-512 512 229.181 512 512c0 282.819-229.181 512-512 512zM828.952 484.571c0-92.648-60.952-168.229-153.6-190.171v-95.086c0-7.314-2.438-12.19-9.752-17.067-2.438-2.438-4.876-2.438-7.314-2.438s-7.314 0-9.752 2.438l-173.105 95.086h-58.514c-107.276 0-197.486 95.086-197.486 207.238v36.571c0 107.276 87.771 195.048 197.486 195.048h214.552c109.714 0 197.486-87.771 197.486-195.048v-36.571z" />
<glyph unicode="&#xe909;" glyph-name="-6" d="M270.629 560.152v-70.705c12.19-39.010 107.276-78.019 241.371-78.019s229.181 39.010 241.371 78.019v70.705c-51.2-39.010-148.724-60.952-241.371-60.952s-190.171 21.943-241.371 60.952zM270.629 435.81v-60.952c12.19-39.010 107.276-78.019 241.371-78.019s229.181 39.010 241.371 78.019v60.952c-46.324-36.571-134.095-60.952-241.371-60.952s-195.048 24.381-241.371 60.952zM270.629 323.657v-58.514c14.629-39.010 114.59-75.581 241.371-75.581s226.743 39.010 241.371 75.581v58.514c-46.324-36.571-134.095-60.952-241.371-60.952s-195.048 24.381-241.371 60.952zM512 706.438c-138.971 0-243.81-46.324-243.81-87.771s104.838-87.771 243.81-87.771c138.971 0 243.81 46.324 243.81 87.771 0 43.886-104.838 87.771-243.81 87.771zM512 960c-282.819 0-512-229.181-512-512s229.181-512 512-512 512 229.181 512 512c0 282.819-229.181 512-512 512zM787.505 621.105v-348.648c-2.438-78.019-143.848-119.467-275.505-119.467s-273.067 41.448-275.505 119.467v0 348.648c2.438 78.019 143.848 119.467 275.505 119.467 134.095 2.438 275.505-41.448 275.505-119.467 0 0 0 0 0 0v0z" />
<glyph unicode="&#xe90a;" glyph-name="-7" d="M807.010 482.133l-31.695-4.876-7.314 31.695c-7.314 24.381-19.505 48.762-36.571 70.705l-19.505 24.381 19.505 21.943c2.438 2.438 7.314 9.752 12.19 19.505 2.438 7.314 4.876 14.629 4.876 19.505-4.876-2.438-12.19-2.438-19.505-4.876h-4.876c-21.943-2.438-29.257-7.314-29.257-7.314l-19.505-24.381-21.943 14.629c-39.010 19.505-82.895 29.257-126.781 29.257-129.219 0-236.495-85.333-246.248-192.61l-2.438-19.505 2.438-14.629c4.876-58.514 39.010-112.152 95.086-148.724l12.19-7.314 2.438-12.19 12.19-56.076h34.133v7.314l4.876 36.571 36.571-4.876c17.067-2.438 31.695-4.876 46.324-4.876 19.505 0 39.010 2.438 58.514 4.876l31.695 7.314 17.067-51.2h34.133v75.581l14.629 9.752c34.133 24.381 58.514 53.638 75.581 87.771l14.629 34.133 34.133-14.629c0 0 2.438 0 2.438 0 4.876 0 7.314 2.438 7.314 7.314v56.076c0 4.876-2.438 7.314-4.876 7.314zM512 960c-282.819 0-512-229.181-512-512s229.181-512 512-512 512 229.181 512 512c0 282.819-229.181 512-512 512zM809.448 518.705c24.381 0 43.886-19.505 43.886-43.886v-56.076c0-24.381-19.505-43.886-43.886-43.886-7.314 0-12.19 2.438-17.067 4.876-17.067-41.448-48.762-75.581-87.771-102.4 0-19.505 0-48.762 0-70.705 0-12.19 7.314-21.943 7.314-21.943h-102.4l-17.067 46.324c-21.943-4.876-43.886-7.314-65.829-7.314-17.067 0-36.571 2.438-51.2 4.876-2.438-9.752-2.438-19.505-4.876-29.257 0-9.752-2.438-9.752-2.438-12.19l-97.524 2.438-19.505 85.333c-60.952 41.448-104.838 104.838-109.714 175.543-24.381 19.505-70.705 63.39-73.143 90.21 0 0 9.752-29.257 73.143-48.762 12.19 126.781 134.095 224.305 282.819 224.305 53.638 0 102.4-12.19 143.848-34.133 7.314 9.752 24.381 17.067 51.2 21.943 26.819 7.314 48.762 14.629 58.514 14.629 17.067 0 17.067-17.067-2.438-78.019-4.876-14.629-12.19-24.381-17.067-31.695 19.505-24.381 34.133-53.638 43.886-85.333z" />
<glyph unicode="&#xe90b;" glyph-name="-8" d="M512 960c-282.819 0-512-229.181-512-512s229.181-512 512-512 512 229.181 512 512c0 282.819-229.181 512-512 512zM268.19 374.857c-41.448 0-73.143 31.695-73.143 73.143s31.695 73.143 73.143 73.143 73.143-31.695 73.143-73.143c0-41.448-31.695-73.143-73.143-73.143zM512 374.857c-41.448 0-73.143 31.695-73.143 73.143s31.695 73.143 73.143 73.143c41.448 0 73.143-31.695 73.143-73.143s-31.695-73.143-73.143-73.143zM755.81 374.857c-41.448 0-73.143 31.695-73.143 73.143s31.695 73.143 73.143 73.143c41.448 0 73.143-31.695 73.143-73.143s-31.695-73.143-73.143-73.143z" />
<glyph unicode="&#xe90c;" glyph-name="-9" d="M512 960c-282.819 0-512-229.181-512-512s229.181-512 512-512 512 229.181 512 512c0 282.819-229.181 512-512 512zM743.619 562.59l-263.314-275.505c-4.876-4.876-12.19-9.752-21.943-9.752 0 0 0 0 0 0-7.314 0-14.629 2.438-21.943 9.752l-156.038 160.914c-12.19 12.19-12.19 31.695 0 43.886s31.695 12.19 41.448 0l134.095-138.971 243.81 253.562c12.19 12.19 31.695 12.19 41.448 0 14.629-12.19 14.629-31.695 2.438-43.886z" />
<glyph unicode="&#xe90d;" glyph-name="-13" horiz-adv-x="1002" d="M405.838 425.628c-105.984 38.712-181.782 139.754-181.782 258.716 0 152.242 123.926 275.656 276.814 275.656 152.865 0 276.769-123.414 276.769-275.679 0-118.962-75.776-220.004-181.738-258.716 231.135-44.21 405.838-246.472 405.838-489.606h-1001.739c0 243.133 174.703 445.395 405.838 489.628v0z" />
<glyph unicode="&#xe90e;" glyph-name="-15" horiz-adv-x="1002" d="M955.036-19.434c-19.567 198.010-168.092 363.208-367.527 401.386l-86.639 16.584-86.662-16.562c-199.435-38.177-347.96-203.398-367.46-401.408h908.288zM500.87 438.406l79.761 29.073c91.225 33.28 152.487 120.431 152.487 216.843 0 127.488-104.181 231.157-232.248 231.157-128.089 0-232.292-103.669-232.292-231.157 0-96.412 61.284-183.563 152.554-216.843l79.738-29.073zM1001.739-64h-1001.739c0 243.133 174.703 445.395 405.838 489.606-106.006 38.712-181.782 139.754-181.782 258.716 0 152.264 123.926 275.679 276.814 275.679 152.865 0 276.769-123.414 276.769-275.679 0-118.962-75.776-220.004-181.738-258.716 231.135-44.21 405.838-246.472 405.838-489.606v0 0z" />
<glyph unicode="&#xe90f;" glyph-name="-16" d="M407.374 746.296c-224.835 0-407.374-180.313-407.374-405.148v-405.148h407.374c224.835 0 407.374 182.539 407.374 405.148-2.226 224.835-184.765 405.148-407.374 405.148zM407.374 163.061l-178.087 175.861 178.087 175.861 178.087-175.861-178.087-175.861zM990.609 677.287l-15.583 15.583c24.487 26.713 37.843 62.33 37.843 100.174 0 82.365-66.783 151.374-151.374 151.374-37.843 0-73.461-13.357-100.174-37.843l-22.261 22.261c-44.522 44.522-117.983 44.522-162.504 0s-44.522-115.757 0-160.278l251.548-253.774c44.522-44.522 117.983-44.522 162.504 0s44.522 117.983 0 162.504z" />
<glyph unicode="&#xe910;" glyph-name="-17" d="M407.374-30.609c204.8 0 371.757 166.957 371.757 371.757s-166.957 371.757-373.983 371.757c-204.8 0-371.757-166.957-371.757-371.757v-371.757h373.983zM407.374 563.757l227.061-227.061-227.061-227.061-227.061 227.061 227.061 227.061zM908.243 514.783c22.261 0 42.296 8.904 57.878 24.487s24.487 35.617 24.487 57.878c0 22.261-8.904 42.296-24.487 57.878l-37.843 37.843 20.035 24.487c13.357 15.583 28.939 42.296 28.939 77.913 0 64.557-53.426 117.983-117.983 117.983-35.617 0-62.33-15.583-77.913-28.939l-24.487-20.035-44.522 44.522c-15.583 15.583-35.617 24.487-57.878 24.487s-42.296-8.904-57.878-24.487c-11.13-20.035-17.809-42.296-17.809-62.33 0-22.261 8.904-42.296 24.487-57.878l249.322-249.322c13.357-15.583 35.617-24.487 55.652-24.487zM407.374-64h-407.374v405.148c0 224.835 182.539 405.148 407.374 405.148s407.374-182.539 407.374-405.148c-2.226-224.835-184.765-405.148-407.374-405.148v0 0zM407.374 517.009l-178.087-175.861 178.087-175.861 178.087 175.861-178.087 175.861zM908.243 481.391c-28.939 0-57.878 11.13-80.139 33.391l-249.322 251.548c-44.522 44.522-44.522 115.757 0 160.278 22.261 22.261 51.2 33.391 80.139 33.391s57.878-11.13 80.139-33.391l22.261-22.261c26.713 24.487 60.104 37.843 100.174 37.843 82.365 0 151.374-66.783 151.374-151.374 0-37.843-15.583-73.461-37.843-100.174l15.583-15.583c44.522-44.522 44.522-115.757 0-160.278-22.261-22.261-53.426-33.391-82.365-33.391v0 0z" />
<glyph unicode="&#xe911;" glyph-name="红包" d="M709.486 713.752h-394.971c-17.067 0-31.695-14.629-36.571-29.257 21.943-107.276 119.467-187.733 231.619-187.733s209.676 80.457 231.619 187.733c0 14.629-14.629 29.257-31.695 29.257zM509.562 467.505c-97.524 0-185.295 58.514-226.743 136.533v-387.657c0-17.067 14.629-31.695 31.695-31.695h390.095c21.943 0 36.571 14.629 36.571 31.695v390.095c-46.324-85.333-134.095-138.971-231.619-138.971zM563.2 338.286v-14.629h-43.886v-14.629h39.010v-14.629h-39.010v-39.010h-21.943v39.010h-39.010v14.629h39.010v14.629h-39.010v14.629h31.695l-43.886 65.829h24.381l36.571-60.952 36.571 60.952h24.381l-39.010-65.829h34.133zM512 960c-282.819 0-512-229.181-512-512s229.181-512 512-512c282.819 0 512 229.181 512 512s-229.181 512-512 512zM709.486 157.867h-394.971c-36.571 0-60.952 29.257-60.952 60.952v458.362c0 36.571 24.381 60.952 60.952 60.952h390.095c31.695 0 60.952-24.381 60.952-58.514l2.438-463.238c2.438-34.133-26.819-58.514-58.514-58.514z" />
<glyph unicode="&#xe912;" d="M512 960c-282.819 0-512-229.181-512-512s229.181-512 512-512 512 229.181 512 512-229.181 512-512 512zM782.629 248.076h-541.257v36.571h541.257v-36.571zM782.629 428.495h-541.257v36.571h541.257v-36.571zM782.629 611.352h-541.257v36.571h541.257v-36.571z" />
<glyph unicode="&#xe913;" d="M241.371 647.924h541.257v-36.571h-541.257v36.571z" />
<glyph unicode="&#xe914;" d="M241.371 467.505h541.257v-36.571h-541.257v36.571z" />
<glyph unicode="&#xe915;" d="M241.371 284.648h541.257v-36.571h-541.257v36.571z" />
</font>
</defs>
</svg>
